<svg width="142" height="144" viewBox="0 0 142 144" fill="none" xmlns="http://www.w3.org/2000/svg">
<g filter="url(#filter0_d_720_247)">
<path d="M71.0005 38.7969C58.1665 38.7969 47.7505 49.6329 47.7505 62.9844C47.7505 76.0779 57.6085 86.7204 70.6905 87.1074H71.2485H71.6825H71.8065C84.3305 86.6559 94.1885 76.0779 94.2505 62.9844C94.2505 49.6329 83.8345 38.7969 71.0005 38.7969Z" fill="black"/>
</g>
<rect x="0.5" y="0.5" width="141" height="142" rx="9.5" stroke="black"/>
<g filter="url(#filter1_d_720_247)">
<path d="M133 71.5C133 35.9605 105.162 7 71 7C36.838 7 9 35.9605 9 71.5C9 90.205 16.75 107.039 29.026 118.843C29.026 118.908 29.026 118.908 28.964 118.972C29.584 119.617 30.328 120.133 30.948 120.713C31.32 121.036 31.63 121.358 32.002 121.617C33.118 122.584 34.358 123.487 35.536 124.39C35.97 124.713 36.342 124.97 36.776 125.293C37.954 126.132 39.194 126.906 40.496 127.615C40.93 127.873 41.426 128.195 41.86 128.453C43.1 129.163 44.402 129.808 45.766 130.388C46.262 130.646 46.758 130.904 47.254 131.098C48.618 131.678 49.982 132.194 51.346 132.646C51.842 132.839 52.338 133.033 52.834 133.162C54.322 133.613 55.81 134 57.298 134.387C57.732 134.516 58.166 134.645 58.662 134.71C60.398 135.097 62.134 135.355 63.932 135.548C64.18 135.548 64.428 135.613 64.676 135.678C66.784 135.871 68.892 136 71 136C73.108 136 75.216 135.871 77.262 135.678C77.51 135.678 77.758 135.613 78.006 135.548C79.804 135.355 81.54 135.097 83.276 134.71C83.71 134.645 84.144 134.452 84.64 134.387C86.128 134 87.678 133.678 89.104 133.162C89.6 132.968 90.096 132.775 90.592 132.646C91.956 132.13 93.382 131.678 94.684 131.098C95.18 130.904 95.676 130.646 96.172 130.388C97.474 129.808 98.776 129.163 100.078 128.453C100.574 128.195 101.008 127.873 101.442 127.615C102.682 126.841 103.922 126.132 105.162 125.293C105.596 125.035 105.968 124.713 106.402 124.39C107.642 123.487 108.82 122.584 109.936 121.617C110.308 121.294 110.618 120.971 110.99 120.713C111.672 120.133 112.354 119.552 112.974 118.972C112.974 118.908 112.974 118.908 112.912 118.843C125.25 107.039 133 90.205 133 71.5ZM101.628 103.556C84.826 91.8175 57.298 91.8175 40.372 103.556C37.644 105.427 35.412 107.62 33.552 110.006C24.128 100.073 18.3 86.464 18.3 71.5C18.3 41.2495 41.922 16.675 71 16.675C100.078 16.675 123.7 41.2495 123.7 71.5C123.7 86.464 117.872 100.073 108.448 110.006C106.65 107.62 104.356 105.427 101.628 103.556Z" fill="black"/>
</g>
<defs>
<filter id="filter0_d_720_247" x="43.7505" y="38.7969" width="54.5" height="56.3105" filterUnits="userSpaceOnUse" color-interpolation-filters="sRGB">
<feFlood flood-opacity="0" result="BackgroundImageFix"/>
<feColorMatrix in="SourceAlpha" type="matrix" values="0 0 0 0 0 0 0 0 0 0 0 0 0 0 0 0 0 0 127 0" result="hardAlpha"/>
<feOffset dy="4"/>
<feGaussianBlur stdDeviation="2"/>
<feComposite in2="hardAlpha" operator="out"/>
<feColorMatrix type="matrix" values="0 0 0 0 0 0 0 0 0 0 0 0 0 0 0 0 0 0 0.25 0"/>
<feBlend mode="normal" in2="BackgroundImageFix" result="effect1_dropShadow_720_247"/>
<feBlend mode="normal" in="SourceGraphic" in2="effect1_dropShadow_720_247" result="shape"/>
</filter>
<filter id="filter1_d_720_247" x="5" y="7" width="132" height="137" filterUnits="userSpaceOnUse" color-interpolation-filters="sRGB">
<feFlood flood-opacity="0" result="BackgroundImageFix"/>
<feColorMatrix in="SourceAlpha" type="matrix" values="0 0 0 0 0 0 0 0 0 0 0 0 0 0 0 0 0 0 127 0" result="hardAlpha"/>
<feOffset dy="4"/>
<feGaussianBlur stdDeviation="2"/>
<feComposite in2="hardAlpha" operator="out"/>
<feColorMatrix type="matrix" values="0 0 0 0 0 0 0 0 0 0 0 0 0 0 0 0 0 0 0.25 0"/>
<feBlend mode="normal" in2="BackgroundImageFix" result="effect1_dropShadow_720_247"/>
<feBlend mode="normal" in="SourceGraphic" in2="effect1_dropShadow_720_247" result="shape"/>
</filter>
</defs>
</svg>
